<svg width="16" height="16" viewBox="0 0 16 16" fill="none" xmlns="http://www.w3.org/2000/svg">
<g clip-path="url(#clip0_27_67)">
<path d="M4.29634 0.15987L3.49485 0.961416C3.38782 1.06822 3.33447 1.19126 3.33447 1.33035C3.33447 1.46911 3.38782 1.59209 3.49485 1.69889L9.79553 7.99991L3.49502 14.3007C3.38799 14.4075 3.33464 14.5305 3.33464 14.6694C3.33464 14.8084 3.38799 14.9314 3.49502 15.0382L4.29656 15.8396C4.40337 15.9467 4.52635 16 4.66533 16C4.8042 16 4.92718 15.9465 5.03398 15.8396L12.5051 8.36868C12.612 8.26188 12.6654 8.13884 12.6654 7.99991C12.6654 7.86099 12.612 7.73818 12.5051 7.63143L5.03398 0.15987C4.92712 0.0530643 4.80414 -9.53674e-07 4.66533 -9.53674e-07C4.52635 -9.53674e-07 4.40337 0.0530643 4.29634 0.15987Z" fill="#447DE6"/>
</g>
<defs>
<clipPath id="clip0_27_67">
<rect width="16" height="16" fill="white" transform="translate(0 16) rotate(-90)"/>
</clipPath>
</defs>
</svg>
