<svg width="24" height="24" viewBox="0 0 24 24" fill="none" xmlns="http://www.w3.org/2000/svg">
<path d="M7.7212 10.15H5.38657C5.18831 10.15 5.02783 10.3105 5.02783 10.5087V12.8434C5.02783 13.0414 5.18831 13.2021 5.38657 13.2021H7.7212C7.91946 13.2021 8.07994 13.0414 8.07994 12.8434V10.5087C8.07994 10.3107 7.91946 10.15 7.7212 10.15ZM7.36247 12.4846H5.7453V10.8675H7.36247V12.4846Z" fill="#447DE6"/>
<path d="M13.1665 10.15H10.8319C10.6336 10.15 10.4731 10.3105 10.4731 10.5087V12.8434C10.4731 13.0414 10.6336 13.2021 10.8319 13.2021H13.1665C13.3645 13.2021 13.5253 13.0414 13.5253 12.8434V10.5087C13.5253 10.3107 13.3645 10.15 13.1665 10.15ZM12.8078 12.4846H11.1906V10.8675H12.8078V12.4846Z" fill="#447DE6"/>
<path d="M18.4439 10.15H16.1092C15.9112 10.15 15.7505 10.3105 15.7505 10.5087V12.8434C15.7505 13.0414 15.9112 13.2021 16.1092 13.2021H18.4439C18.6419 13.2021 18.8026 13.0414 18.8026 12.8434V10.5087C18.8026 10.3107 18.6419 10.15 18.4439 10.15ZM18.0851 12.4846H16.468V10.8675H18.0851V12.4846Z" fill="#447DE6"/>
<path d="M7.7212 15.4679H5.38657C5.18831 15.4679 5.02783 15.6286 5.02783 15.8266V18.1613C5.02783 18.3593 5.18831 18.52 5.38657 18.52H7.7212C7.91946 18.52 8.07994 18.3593 8.07994 18.1613V15.8266C8.07994 15.6286 7.91946 15.4679 7.7212 15.4679ZM7.36247 17.8025H5.7453V16.1853H7.36247V17.8025Z" fill="#447DE6"/>
<path d="M13.1665 15.4679H10.8319C10.6336 15.4679 10.4731 15.6286 10.4731 15.8266V18.1613C10.4731 18.3593 10.6336 18.52 10.8319 18.52H13.1665C13.3645 18.52 13.5253 18.3593 13.5253 18.1613V15.8266C13.5253 15.6286 13.3645 15.4679 13.1665 15.4679ZM12.8078 17.8025H11.1906V16.1853H12.8078V17.8025Z" fill="#447DE6"/>
<path d="M18.4439 15.4679H16.1092C15.9112 15.4679 15.7505 15.6286 15.7505 15.8266V18.1613C15.7505 18.3593 15.9112 18.52 16.1092 18.52H18.4439C18.6419 18.52 18.8026 18.3593 18.8026 18.1613V15.8266C18.8026 15.6286 18.6419 15.4679 18.4439 15.4679ZM18.0851 17.8025H16.468V16.1853H18.0851V17.8025Z" fill="#447DE6"/>
<path d="M21.2849 3.20326H18.9156C18.9125 3.20326 18.9098 3.20397 18.9067 3.20421V2.72638C18.9067 1.94482 18.2711 1.30914 17.4895 1.30914C16.7079 1.30914 16.0723 1.94506 16.0723 2.72638V3.20326H13.4026V2.72638C13.4026 1.94482 12.7669 1.30914 11.9853 1.30914C11.2038 1.30914 10.5681 1.94506 10.5681 2.72638V3.20326H7.89815V2.72638C7.89815 1.94482 7.26248 1.30914 6.48092 1.30914C5.69936 1.30914 5.06368 1.94506 5.06368 2.72638V3.2035C5.06248 3.2035 5.06129 3.20326 5.06009 3.20326H2.69125C2.49299 3.20326 2.33252 3.36373 2.33252 3.56199V22.1554C2.33252 22.3534 2.49299 22.5141 2.69125 22.5141H21.2849C21.4829 22.5141 21.6436 22.3534 21.6436 22.1554V3.56199C21.6436 3.36373 21.4829 3.20326 21.2849 3.20326ZM16.7897 2.72638C16.7897 2.34038 17.1035 2.02661 17.4895 2.02661C17.8755 2.02661 18.1893 2.34038 18.1893 2.72638V4.70587C18.1893 5.09163 17.8755 5.40564 17.4895 5.40564C17.1035 5.40564 16.7897 5.09187 16.7897 4.70587V2.72638ZM11.9853 2.02661C12.3711 2.02661 12.6851 2.34038 12.6851 2.72638V4.70587C12.6851 5.09163 12.3713 5.40564 11.9853 5.40564C11.5993 5.40564 11.2856 5.09187 11.2856 4.70587V3.59547C11.2865 3.58423 11.2889 3.57347 11.2889 3.56175C11.2889 3.55003 11.2865 3.53927 11.2856 3.52803V2.72638C11.2856 2.34038 11.5993 2.02661 11.9853 2.02661ZM5.78115 2.72638C5.78115 2.34038 6.09492 2.02661 6.48092 2.02661C6.86667 2.02661 7.18069 2.34038 7.18069 2.72638V4.70587C7.18069 5.09163 6.86691 5.40564 6.48092 5.40564C6.09492 5.40564 5.78115 5.09187 5.78115 4.70587V2.72638ZM20.9262 21.7967H3.04999V3.92072H5.06009C5.06129 3.92072 5.06248 3.92049 5.06368 3.92049V4.70611C5.06368 5.48767 5.69959 6.12335 6.48092 6.12335C7.26224 6.12335 7.89815 5.48767 7.89815 4.70611V3.92096H10.5681V4.70611C10.5681 5.48767 11.204 6.12335 11.9853 6.12335C12.7666 6.12335 13.4026 5.48767 13.4026 4.70611V3.92096H16.0723V4.70611C16.0723 5.48767 16.7079 6.12335 17.4895 6.12335C18.2711 6.12335 18.9067 5.48767 18.9067 4.70611V3.91977C18.9098 3.91977 18.9125 3.92072 18.9156 3.92072H20.9262V21.7967Z" fill="#447DE6"/>
</svg>
