<svg width="24" height="24" viewBox="0 0 24 24" fill="none" xmlns="http://www.w3.org/2000/svg">
<path d="M17.625 8.625H9.375V9.375H17.625V8.625Z" fill="#447DE6"/>
<path d="M17.625 12.375H9.375V13.125H17.625V12.375Z" fill="#447DE6"/>
<path d="M17.625 16.125H9.375V16.875H17.625V16.125Z" fill="#447DE6"/>
<path d="M17.625 19.875H9.375V20.625H17.625V19.875Z" fill="#447DE6"/>
<path d="M7.875 8.625H6.375V9.375H7.875V8.625Z" fill="#447DE6"/>
<path d="M7.875 12.375H6.375V13.125H7.875V12.375Z" fill="#447DE6"/>
<path d="M7.875 16.125H6.375V16.875H7.875V16.125Z" fill="#447DE6"/>
<path d="M7.875 19.875H6.375V20.625H7.875V19.875Z" fill="#447DE6"/>
<path d="M10.125 0V1.5H8.70712L8.42587 2.625H3.375V24H20.625V2.625H15.5741L15.2929 1.5H13.875V0H10.125ZM16.2304 5.25L15.7616 3.375H19.875V23.25H4.125V3.375H8.23837L7.76962 5.25H16.2304ZM14.7071 2.25L15.2696 4.5H8.73038L9.29288 2.25H10.875V0.75H13.125V2.25H14.7071Z" fill="#447DE6"/>
</svg>
