<svg width="205" height="55" viewBox="0 0 205 55" fill="none" xmlns="http://www.w3.org/2000/svg">
<path d="M25.228 13.52H25.372C26.38 13.616 27.16 13.664 27.712 13.664C28.312 13.664 29.248 13.604 30.52 13.484C31.792 13.34 32.776 13.268 33.472 13.268C35.032 13.268 36.004 13.424 36.388 13.736C36.796 14.024 37.024 14.732 37.072 15.86V16.148C37.072 16.724 36.94 17.192 36.676 17.552C36.436 17.888 36.088 18.056 35.632 18.056C35.056 18.056 34.672 17.876 34.48 17.516V17.552C34.36 17.384 34.24 17.048 34.12 16.544C34 16.04 33.748 15.656 33.364 15.392H33.184C32.008 15.44 31.132 15.548 30.556 15.716V15.68C30.484 15.752 30.376 15.812 30.232 15.86V15.824C30.16 15.92 30.088 16.076 30.016 16.292C30.064 16.772 30.088 17.18 30.088 17.516L30.124 18.632C30.196 19.304 30.232 20.096 30.232 21.008C30.232 21.32 30.208 21.788 30.16 22.412C30.136 23.036 30.124 23.492 30.124 23.78C30.124 23.876 30.124 24.008 30.124 24.176C30.148 24.32 30.16 24.428 30.16 24.5V25.076C30.16 25.484 30.148 26.144 30.124 27.056C30.1 27.968 30.088 28.652 30.088 29.108C30.088 29.276 30.1 29.756 30.124 30.548C30.148 31.316 30.16 31.88 30.16 32.24C30.16 32.528 30.148 32.984 30.124 33.608C30.1 34.232 30.088 34.688 30.088 34.976V35.84V35.876C31.096 35.876 31.732 36.164 31.996 36.74L32.068 36.992C32.068 37.208 31.96 37.424 31.744 37.64C31.552 37.856 31.312 37.964 31.024 37.964C30.472 37.964 29.548 38.012 28.252 38.108C26.956 38.204 25.996 38.252 25.372 38.252L24.76 37.64C24.76 37.472 24.82 37.268 24.94 37.028H24.904C25 36.836 25.108 36.704 25.228 36.632C25.348 36.536 25.492 36.464 25.66 36.416C25.852 36.368 25.984 36.32 26.056 36.272V36.308C26.128 36.212 26.164 36.08 26.164 35.912C26.164 35.36 26.14 34.496 26.092 33.32C26.044 32.12 26.02 31.184 26.02 30.512V24.608C26.02 24.392 26.056 24.068 26.128 23.636C26.2 23.18 26.236 22.76 26.236 22.376C26.236 22.112 26.224 21.908 26.2 21.764V21.8C26.128 21.44 26.092 21.032 26.092 20.576C26.092 20.048 26.128 19.352 26.2 18.488C26.296 17.624 26.344 16.988 26.344 16.58V16.184C26.344 16.136 26.344 16.088 26.344 16.04C26.368 15.968 26.38 15.908 26.38 15.86C25.924 15.836 25.108 15.824 23.932 15.824H22.816C22.384 15.872 22.168 16.184 22.168 16.76V17.012L22.204 17.156C22.204 17.516 22.06 17.84 21.772 18.128C21.484 18.392 21.16 18.524 20.8 18.524C20.464 18.524 20.176 18.476 19.936 18.38C19.696 18.26 19.516 18.128 19.396 17.984C19.276 17.84 19.18 17.624 19.108 17.336C19.06 17.048 19.024 16.82 19 16.652C19 16.46 19 16.196 19 15.86V15.428C19 14.732 19.096 14.24 19.288 13.952C19.504 13.64 19.936 13.484 20.584 13.484C20.848 13.484 21.256 13.508 21.808 13.556C22.384 13.58 22.828 13.592 23.14 13.592C24.028 13.592 24.724 13.568 25.228 13.52ZM37.4303 27.524V27.488C37.6223 24.752 37.9103 22.544 38.2943 20.864C38.2943 20.768 38.3423 20.6 38.4383 20.36C38.5583 20.096 38.6183 19.904 38.6183 19.784L38.8343 18.992C39.4103 16.856 40.8983 15.128 43.2983 13.808V13.844C44.2583 13.22 45.2663 12.908 46.3223 12.908C47.6183 12.908 48.7703 13.136 49.7783 13.592C50.8103 14.048 51.6383 14.636 52.2623 15.356C52.8863 16.052 53.4023 16.88 53.8103 17.84C54.2423 18.8 54.5423 19.76 54.7103 20.72C54.8783 21.656 54.9623 22.616 54.9623 23.6V23.816C54.9623 23.84 54.9623 23.876 54.9623 23.924C54.9863 23.972 54.9983 24.008 54.9983 24.032C54.9983 24.056 54.9983 24.092 54.9983 24.14L54.9623 24.212V24.356C54.9623 24.716 54.9743 25.064 54.9983 25.4C55.0463 25.712 55.0703 25.988 55.0703 26.228C55.0703 28.604 54.6383 30.572 53.7743 32.132L53.3063 32.96C52.7543 33.872 52.3223 34.544 52.0103 34.976V34.94L51.8663 35.228C50.7383 37.052 48.5063 37.964 45.1703 37.964C42.3623 37.964 40.4783 37.148 39.5183 35.516C38.3423 33.572 37.7063 31.928 37.6103 30.584L37.5023 29C37.4543 28.424 37.4303 27.932 37.4303 27.524ZM50.9663 26.084C51.0143 25.508 51.0383 25.088 51.0383 24.824C51.0383 23.216 50.8703 21.572 50.5343 19.892C50.2223 18.188 49.7543 17.072 49.1303 16.544C49.0823 16.544 48.9623 16.46 48.7703 16.292C48.6023 16.124 48.4823 15.968 48.4103 15.824V15.86C47.8343 15.476 47.1983 15.284 46.5023 15.284C45.9983 15.284 45.6023 15.332 45.3143 15.428L44.7383 15.716L43.1903 16.508V16.472C43.0463 16.592 42.9143 16.772 42.7943 17.012C42.6983 17.228 42.6023 17.504 42.5063 17.84C42.4103 18.176 42.3383 18.404 42.2903 18.524V18.452C42.0983 18.908 41.9423 19.388 41.8223 19.892C41.7023 20.396 41.6183 20.96 41.5703 21.584C41.5463 22.208 41.5223 22.724 41.4983 23.132C41.4983 23.516 41.4983 24.116 41.4983 24.932C41.5223 25.724 41.5343 26.252 41.5343 26.516V27.632C41.5343 29.768 41.9783 31.688 42.8663 33.392C43.7543 35.072 44.8463 35.912 46.1423 35.912C46.4543 35.912 46.8863 35.804 47.4383 35.588L47.7263 35.48C48.6623 35.168 49.4303 34.412 50.0303 33.212C50.6543 31.988 50.9663 30.728 50.9663 29.432V26.084ZM58.8602 13.556C59.3402 13.532 60.1562 13.52 61.3082 13.52H62.2442H63.9002C64.0682 13.496 64.3202 13.484 64.6562 13.484C66.7202 13.484 68.4482 13.832 69.8402 14.528C71.2562 15.224 72.3122 16.232 73.0082 17.552C73.7282 18.872 74.2202 20.276 74.4842 21.764C74.7722 23.228 74.9162 24.968 74.9162 26.984C74.9162 27.92 74.8322 28.952 74.6642 30.08C74.3522 31.928 73.5362 33.62 72.2162 35.156C70.9202 36.692 69.3842 37.484 67.6082 37.532H67.3922C67.1042 37.532 66.5402 37.604 65.7002 37.748C64.8602 37.868 64.1762 37.928 63.6482 37.928C63.4322 37.928 63.1562 37.916 62.8202 37.892C62.4842 37.868 62.2322 37.856 62.0642 37.856C61.7762 37.856 61.3202 37.88 60.6962 37.928C60.0722 37.976 59.5802 38 59.2202 38H58.1762C58.1282 38 58.0682 38 57.9962 38C57.9242 38.024 57.8642 38.036 57.8162 38.036C57.4802 38.036 57.1802 37.952 56.9162 37.784C56.6522 37.592 56.5202 37.352 56.5202 37.064C56.5202 36.872 56.5442 36.704 56.5922 36.56C56.6402 36.416 56.7242 36.308 56.8442 36.236C56.9882 36.164 57.0962 36.104 57.1682 36.056C57.2402 36.008 57.3842 35.984 57.6002 35.984C57.8162 35.96 57.9362 35.948 57.9602 35.948C57.9842 35.948 58.1042 35.948 58.3202 35.948V35.12C58.3202 35.072 58.3082 34.988 58.2842 34.868C58.2842 34.748 58.2842 34.652 58.2842 34.58C58.2842 34.556 58.2842 34.52 58.2842 34.472C58.3082 34.4 58.3202 34.352 58.3202 34.328C58.5362 30.944 58.6442 27.416 58.6442 23.744V23.096C58.6682 22.64 58.7042 21.956 58.7522 21.044C58.8242 20.132 58.8602 19.46 58.8602 19.028L58.8962 17.948C58.9922 16.988 59.0402 16.268 59.0402 15.788C59.0402 15.716 59.0042 15.668 58.9322 15.644C58.8602 15.62 58.7402 15.584 58.5722 15.536C58.4042 15.488 58.2602 15.44 58.1402 15.392V15.356C57.7562 15.164 57.5642 14.936 57.5642 14.672C57.6122 14.36 57.7082 14.144 57.8522 14.024H57.7802C58.2602 13.736 58.6202 13.58 58.8602 13.556ZM62.1722 32.888C62.1242 34.064 62.0762 34.988 62.0282 35.66C62.7722 35.66 63.6842 35.624 64.7642 35.552L65.7722 35.48C66.0122 35.456 66.3842 35.444 66.8882 35.444H67.5722C68.0762 35.444 68.6642 35.168 69.3362 34.616V34.652L70.0202 33.14C70.5482 31.484 70.8122 29.888 70.8122 28.352C70.8122 25.472 70.6202 23.204 70.2362 21.548L69.8042 19.316C69.5402 18.548 69.2642 17.972 68.9762 17.588C68.6882 17.204 68.2322 16.808 67.6082 16.4L67.1042 16.112L66.0962 15.968C65.3282 15.872 64.6802 15.824 64.1522 15.824C63.4322 15.824 62.9762 15.896 62.7842 16.04C62.6162 16.184 62.5322 16.508 62.5322 17.012C62.5322 17.324 62.5442 17.852 62.5682 18.596C62.6162 19.34 62.6402 19.88 62.6402 20.216C62.5682 20.84 62.5082 22.328 62.4602 24.68C62.4362 27.032 62.3402 29 62.1722 30.584V32.888ZM76.6998 27.524V27.488C76.8918 24.752 77.1798 22.544 77.5638 20.864C77.5638 20.768 77.6118 20.6 77.7078 20.36C77.8278 20.096 77.8878 19.904 77.8878 19.784L78.1038 18.992C78.6798 16.856 80.1678 15.128 82.5678 13.808V13.844C83.5278 13.22 84.5358 12.908 85.5918 12.908C86.8878 12.908 88.0398 13.136 89.0478 13.592C90.0798 14.048 90.9078 14.636 91.5318 15.356C92.1558 16.052 92.6718 16.88 93.0798 17.84C93.5118 18.8 93.8118 19.76 93.9798 20.72C94.1478 21.656 94.2318 22.616 94.2318 23.6V23.816C94.2318 23.84 94.2318 23.876 94.2318 23.924C94.2558 23.972 94.2678 24.008 94.2678 24.032C94.2678 24.056 94.2678 24.092 94.2678 24.14L94.2318 24.212V24.356C94.2318 24.716 94.2438 25.064 94.2678 25.4C94.3158 25.712 94.3398 25.988 94.3398 26.228C94.3398 28.604 93.9078 30.572 93.0438 32.132L92.5758 32.96C92.0238 33.872 91.5918 34.544 91.2798 34.976V34.94L91.1358 35.228C90.0078 37.052 87.7758 37.964 84.4398 37.964C81.6318 37.964 79.7478 37.148 78.7878 35.516C77.6118 33.572 76.9758 31.928 76.8798 30.584L76.7718 29C76.7238 28.424 76.6998 27.932 76.6998 27.524ZM90.2358 26.084C90.2838 25.508 90.3078 25.088 90.3078 24.824C90.3078 23.216 90.1398 21.572 89.8038 19.892C89.4918 18.188 89.0238 17.072 88.3998 16.544C88.3518 16.544 88.2318 16.46 88.0398 16.292C87.8718 16.124 87.7518 15.968 87.6798 15.824V15.86C87.1038 15.476 86.4678 15.284 85.7718 15.284C85.2678 15.284 84.8718 15.332 84.5838 15.428L84.0078 15.716L82.4598 16.508V16.472C82.3158 16.592 82.1838 16.772 82.0638 17.012C81.9678 17.228 81.8718 17.504 81.7758 17.84C81.6798 18.176 81.6078 18.404 81.5598 18.524V18.452C81.3678 18.908 81.2118 19.388 81.0918 19.892C80.9718 20.396 80.8878 20.96 80.8398 21.584C80.8158 22.208 80.7918 22.724 80.7678 23.132C80.7678 23.516 80.7678 24.116 80.7678 24.932C80.7918 25.724 80.8038 26.252 80.8038 26.516V27.632C80.8038 29.768 81.2478 31.688 82.1358 33.392C83.0238 35.072 84.1158 35.912 85.4118 35.912C85.7238 35.912 86.1558 35.804 86.7078 35.588L86.9958 35.48C87.9318 35.168 88.6998 34.412 89.2998 33.212C89.9238 31.988 90.2358 30.728 90.2358 29.432V26.084ZM95.5017 34.076V31.952C95.5017 31.712 95.6577 31.484 95.9697 31.268C96.2817 31.028 96.6057 30.908 96.9417 30.908C96.9897 30.956 97.0497 30.98 97.1217 30.98C97.7457 31.172 98.1057 31.604 98.2017 32.276V32.6C98.2017 33.344 98.3937 33.992 98.7777 34.544C99.1617 35.096 99.6897 35.456 100.362 35.624C101.658 35.624 102.402 35.612 102.594 35.588C103.29 35.588 103.914 35.276 104.466 34.652C105.018 34.028 105.294 33.356 105.294 32.636C105.294 32.084 105.102 31.424 104.718 30.656C104.358 29.864 103.926 29.24 103.422 28.784L102.99 28.388C102.054 27.5 101.43 26.936 101.118 26.696V26.732C100.806 26.54 100.386 26.24 99.8577 25.832V25.868C98.8737 25.364 98.0937 24.572 97.5177 23.492C96.9657 22.388 96.6897 21.32 96.6897 20.288C96.6897 20.12 96.7137 19.844 96.7617 19.46C96.8337 19.076 96.8697 18.848 96.8697 18.776L97.0497 17.876C97.0497 17.636 97.1217 17.444 97.2657 17.3L97.7337 16.688C98.1657 16.136 98.4657 15.764 98.6337 15.572C98.8017 15.356 99.1017 15.044 99.5337 14.636C99.9657 14.204 100.422 13.916 100.902 13.772C101.382 13.604 101.91 13.52 102.486 13.52C103.11 13.52 103.698 13.664 104.25 13.952L105.078 14.42V14.492L105.258 14.168C105.498 13.76 105.834 13.556 106.266 13.556C106.698 13.556 107.022 13.736 107.238 14.096C107.478 14.456 107.61 14.816 107.634 15.176C107.682 15.536 107.706 16.016 107.706 16.616C107.706 18.776 107.202 19.856 106.194 19.856C105.33 19.856 104.898 19.304 104.898 18.2C104.898 18.152 104.898 18.068 104.898 17.948C104.922 17.828 104.934 17.732 104.934 17.66C104.934 17.324 104.79 17.012 104.502 16.724V16.76L104.25 16.616C103.89 16.4 103.662 16.28 103.566 16.256L102.558 15.752L101.982 16.076C101.382 16.412 100.986 16.688 100.794 16.904V16.868C100.578 17.252 100.47 17.576 100.47 17.84C100.47 17.888 100.47 17.96 100.47 18.056C100.494 18.128 100.506 18.176 100.506 18.2V18.452C100.506 19.7 100.746 20.636 101.226 21.26L101.658 21.728C101.778 21.896 101.91 22.016 102.054 22.088C102.63 22.664 103.422 23.336 104.43 24.104C105.462 24.872 106.326 25.604 107.022 26.3C107.742 26.972 108.258 27.728 108.57 28.568V28.532C108.81 28.916 108.93 29.504 108.93 30.296C108.93 31.928 108.594 33.272 107.922 34.328L107.67 34.688V34.652L107.526 35.012C107.07 35.972 106.23 36.716 105.006 37.244C103.782 37.748 102.582 38 101.406 38C100.902 38 100.518 37.988 100.254 37.964C100.014 37.94 99.6897 37.856 99.2817 37.712C98.8977 37.544 98.5017 37.292 98.0937 36.956V36.992C97.8057 37.592 97.4577 37.892 97.0497 37.892C96.4977 37.892 96.0897 37.712 95.8257 37.352C95.5617 36.992 95.4297 36.62 95.4297 36.236C95.4297 35.996 95.4417 35.636 95.4657 35.156C95.4897 34.652 95.5017 34.292 95.5017 34.076ZM115.861 13.52H116.005C117.013 13.616 117.793 13.664 118.345 13.664C118.945 13.664 119.881 13.604 121.153 13.484C122.425 13.34 123.409 13.268 124.105 13.268C125.665 13.268 126.637 13.424 127.021 13.736C127.429 14.024 127.657 14.732 127.705 15.86V16.148C127.705 16.724 127.573 17.192 127.309 17.552C127.069 17.888 126.721 18.056 126.265 18.056C125.689 18.056 125.305 17.876 125.113 17.516V17.552C124.993 17.384 124.873 17.048 124.753 16.544C124.633 16.04 124.381 15.656 123.997 15.392H123.817C122.641 15.44 121.765 15.548 121.189 15.716V15.68C121.117 15.752 121.009 15.812 120.865 15.86V15.824C120.793 15.92 120.721 16.076 120.649 16.292C120.697 16.772 120.721 17.18 120.721 17.516L120.757 18.632C120.829 19.304 120.865 20.096 120.865 21.008C120.865 21.32 120.841 21.788 120.793 22.412C120.769 23.036 120.757 23.492 120.757 23.78C120.757 23.876 120.757 24.008 120.757 24.176C120.781 24.32 120.793 24.428 120.793 24.5V25.076C120.793 25.484 120.781 26.144 120.757 27.056C120.733 27.968 120.721 28.652 120.721 29.108C120.721 29.276 120.733 29.756 120.757 30.548C120.781 31.316 120.793 31.88 120.793 32.24C120.793 32.528 120.781 32.984 120.757 33.608C120.733 34.232 120.721 34.688 120.721 34.976V35.84V35.876C121.729 35.876 122.365 36.164 122.629 36.74L122.701 36.992C122.701 37.208 122.593 37.424 122.377 37.64C122.185 37.856 121.945 37.964 121.657 37.964C121.105 37.964 120.181 38.012 118.885 38.108C117.589 38.204 116.629 38.252 116.005 38.252L115.393 37.64C115.393 37.472 115.453 37.268 115.573 37.028H115.537C115.633 36.836 115.741 36.704 115.861 36.632C115.981 36.536 116.125 36.464 116.293 36.416C116.485 36.368 116.617 36.32 116.689 36.272V36.308C116.761 36.212 116.797 36.08 116.797 35.912C116.797 35.36 116.773 34.496 116.725 33.32C116.677 32.12 116.653 31.184 116.653 30.512V24.608C116.653 24.392 116.689 24.068 116.761 23.636C116.833 23.18 116.869 22.76 116.869 22.376C116.869 22.112 116.857 21.908 116.833 21.764V21.8C116.761 21.44 116.725 21.032 116.725 20.576C116.725 20.048 116.761 19.352 116.833 18.488C116.929 17.624 116.977 16.988 116.977 16.58V16.184C116.977 16.136 116.977 16.088 116.977 16.04C117.001 15.968 117.013 15.908 117.013 15.86C116.557 15.836 115.741 15.824 114.565 15.824H113.449C113.017 15.872 112.801 16.184 112.801 16.76V17.012L112.837 17.156C112.837 17.516 112.693 17.84 112.405 18.128C112.117 18.392 111.793 18.524 111.433 18.524C111.097 18.524 110.809 18.476 110.569 18.38C110.329 18.26 110.149 18.128 110.029 17.984C109.909 17.84 109.813 17.624 109.741 17.336C109.693 17.048 109.657 16.82 109.633 16.652C109.633 16.46 109.633 16.196 109.633 15.86V15.428C109.633 14.732 109.729 14.24 109.921 13.952C110.137 13.64 110.569 13.484 111.217 13.484C111.481 13.484 111.889 13.508 112.441 13.556C113.017 13.58 113.461 13.592 113.773 13.592C114.661 13.592 115.357 13.568 115.861 13.52ZM129.431 30.368L129.359 15.32L128.999 15.14V15.176C128.135 14.984 127.703 14.6 127.703 14.024C127.703 13.76 127.823 13.544 128.063 13.376C128.327 13.208 128.579 13.124 128.819 13.124C128.987 13.124 129.275 13.148 129.683 13.196C130.115 13.22 130.427 13.232 130.619 13.232C131.627 13.232 132.539 13.088 133.355 12.8C133.643 12.68 134.003 12.62 134.435 12.62C134.675 12.62 134.855 12.704 134.975 12.872L135.083 13.016C135.227 13.16 135.299 13.352 135.299 13.592C135.299 13.808 135.227 14.024 135.083 14.24C134.939 14.432 134.771 14.54 134.579 14.564L134.183 14.744L133.247 15.212C133.247 15.26 133.247 15.332 133.247 15.428C133.271 15.524 133.283 15.596 133.283 15.644L133.607 17.84C133.703 18.44 133.751 19.136 133.751 19.928C133.775 20.696 133.763 21.74 133.715 23.06C133.667 24.356 133.643 25.292 133.643 25.868V26.228C133.643 26.588 133.607 27.116 133.535 27.812C133.487 28.508 133.463 29.012 133.463 29.324C133.463 30.308 133.715 31.412 134.219 32.636V32.6C134.339 32.792 134.531 33.188 134.795 33.788C135.131 34.388 135.635 34.904 136.307 35.336C136.979 35.744 137.639 35.948 138.287 35.948C138.815 35.948 139.511 35.612 140.375 34.94C141.263 34.268 141.863 33.56 142.175 32.816C143.063 30.872 143.507 29.408 143.507 28.424V27.668C143.507 26.612 143.507 25.004 143.507 22.844C143.531 20.684 143.543 19.076 143.543 18.02V17.516C143.543 16.82 143.603 16.22 143.723 15.716V15.536C143.723 15.488 143.711 15.44 143.687 15.392C143.687 15.32 143.687 15.272 143.687 15.248L143.723 15.176C143.603 15.176 143.495 15.152 143.399 15.104L142.067 14.816C142.067 14.72 142.055 14.588 142.031 14.42C142.007 14.252 141.995 14.096 141.995 13.952C142.235 13.448 142.619 13.196 143.147 13.196C144.875 13.196 146.483 12.992 147.971 12.584L148.691 12.656C148.763 12.776 148.847 12.896 148.943 13.016C149.063 13.112 149.147 13.208 149.195 13.304C149.243 13.376 149.267 13.484 149.267 13.628C149.267 14.132 148.979 14.456 148.403 14.6L147.683 14.78L146.603 14.924C146.435 15.02 146.279 15.44 146.135 16.184C146.015 16.928 145.955 17.552 145.955 18.056C145.955 18.392 145.991 18.788 146.063 19.244C146.135 19.676 146.171 19.928 146.171 20C146.171 20.192 146.147 20.54 146.099 21.044C146.075 21.524 146.027 22.448 145.955 23.816C145.883 25.16 145.823 26.888 145.775 29V29.18C145.679 29.972 145.223 31.376 144.407 33.392C144.263 33.944 143.975 34.484 143.543 35.012C143.111 35.54 142.715 35.936 142.355 36.2C142.019 36.464 141.563 36.788 140.987 37.172H140.951C140.015 37.844 138.827 38.18 137.387 38.18C135.947 38.18 134.639 37.784 133.463 36.992V37.028C132.383 36.476 131.687 35.936 131.375 35.408L130.763 34.652C129.923 33.308 129.479 31.88 129.431 30.368ZM151.954 13.556C152.434 13.532 153.25 13.52 154.402 13.52H155.338H156.994C157.162 13.496 157.414 13.484 157.75 13.484C159.814 13.484 161.542 13.832 162.934 14.528C164.35 15.224 165.406 16.232 166.102 17.552C166.822 18.872 167.314 20.276 167.578 21.764C167.866 23.228 168.01 24.968 168.01 26.984C168.01 27.92 167.926 28.952 167.758 30.08C167.446 31.928 166.63 33.62 165.31 35.156C164.014 36.692 162.478 37.484 160.702 37.532H160.486C160.198 37.532 159.634 37.604 158.794 37.748C157.954 37.868 157.27 37.928 156.742 37.928C156.526 37.928 156.25 37.916 155.914 37.892C155.578 37.868 155.326 37.856 155.158 37.856C154.87 37.856 154.414 37.88 153.79 37.928C153.166 37.976 152.674 38 152.314 38H151.27C151.222 38 151.162 38 151.09 38C151.018 38.024 150.958 38.036 150.91 38.036C150.574 38.036 150.274 37.952 150.01 37.784C149.746 37.592 149.614 37.352 149.614 37.064C149.614 36.872 149.638 36.704 149.686 36.56C149.734 36.416 149.818 36.308 149.938 36.236C150.082 36.164 150.19 36.104 150.262 36.056C150.334 36.008 150.478 35.984 150.694 35.984C150.91 35.96 151.03 35.948 151.054 35.948C151.078 35.948 151.198 35.948 151.414 35.948V35.12C151.414 35.072 151.402 34.988 151.378 34.868C151.378 34.748 151.378 34.652 151.378 34.58C151.378 34.556 151.378 34.52 151.378 34.472C151.402 34.4 151.414 34.352 151.414 34.328C151.63 30.944 151.738 27.416 151.738 23.744V23.096C151.762 22.64 151.798 21.956 151.846 21.044C151.918 20.132 151.954 19.46 151.954 19.028L151.99 17.948C152.086 16.988 152.134 16.268 152.134 15.788C152.134 15.716 152.098 15.668 152.026 15.644C151.954 15.62 151.834 15.584 151.666 15.536C151.498 15.488 151.354 15.44 151.234 15.392V15.356C150.85 15.164 150.658 14.936 150.658 14.672C150.706 14.36 150.802 14.144 150.946 14.024H150.874C151.354 13.736 151.714 13.58 151.954 13.556ZM155.266 32.888C155.218 34.064 155.17 34.988 155.122 35.66C155.866 35.66 156.778 35.624 157.858 35.552L158.866 35.48C159.106 35.456 159.478 35.444 159.982 35.444H160.666C161.17 35.444 161.758 35.168 162.43 34.616V34.652L163.114 33.14C163.642 31.484 163.906 29.888 163.906 28.352C163.906 25.472 163.714 23.204 163.33 21.548L162.898 19.316C162.634 18.548 162.358 17.972 162.07 17.588C161.782 17.204 161.326 16.808 160.702 16.4L160.198 16.112L159.19 15.968C158.422 15.872 157.774 15.824 157.246 15.824C156.526 15.824 156.07 15.896 155.878 16.04C155.71 16.184 155.626 16.508 155.626 17.012C155.626 17.324 155.638 17.852 155.662 18.596C155.71 19.34 155.734 19.88 155.734 20.216C155.662 20.84 155.602 22.328 155.554 24.68C155.53 27.032 155.434 29 155.266 30.584V32.888ZM172.818 12.62H175.41C176.13 12.62 176.49 12.848 176.49 13.304C176.49 13.688 176.226 14.084 175.698 14.492C175.194 14.9 174.93 15.128 174.906 15.176L175.446 16.292C176.166 18.068 176.982 19.772 177.894 21.404L178.398 22.376L179.55 19.784L181.602 14.636V14.672C181.602 14.576 181.638 14.456 181.71 14.312C181.062 14.312 180.702 14.3 180.63 14.276C180.39 14.276 180.21 13.748 180.09 12.692C180.546 12.38 181.074 12.224 181.674 12.224H185.994C186.666 12.224 187.098 12.584 187.29 13.304L187.218 13.196V13.376C187.218 13.904 186.966 14.204 186.462 14.276H186.39C186.198 14.276 185.874 14.3 185.418 14.348L184.734 14.42H184.554C184.41 14.492 184.29 14.648 184.194 14.888L181.638 21.26C181.59 21.404 181.482 21.632 181.314 21.944C181.17 22.232 181.086 22.412 181.062 22.484L180.774 23.06C180.75 23.132 180.69 23.264 180.594 23.456C180.522 23.624 180.474 23.732 180.45 23.78L180.27 24.14C179.838 24.836 179.622 25.592 179.622 26.408C179.622 27.08 179.718 28.196 179.91 29.756C180.102 31.316 180.198 32.408 180.198 33.032C180.198 33.224 180.198 33.5 180.198 33.86C180.222 34.22 180.234 34.496 180.234 34.688C180.234 35.336 180.21 35.66 180.162 35.66H180.594C181.674 35.66 182.382 35.948 182.718 36.524V36.488C182.862 36.656 182.934 36.788 182.934 36.884C182.934 37.412 182.586 37.772 181.89 37.964L180.99 38.072C180.798 38.072 180.51 38.048 180.126 38C179.766 37.928 179.538 37.892 179.442 37.892C179.25 37.892 178.854 37.952 178.254 38.072C177.654 38.192 177.174 38.252 176.814 38.252C176.286 38.252 175.782 38.228 175.302 38.18C175.158 38.036 175.038 37.868 174.942 37.676C174.87 37.484 174.834 37.328 174.834 37.208L174.798 36.992C174.798 36.608 175.374 36.32 176.526 36.128C176.19 34.352 175.878 31.172 175.59 26.588V26.696L175.554 26.552C175.53 26.456 175.506 26.348 175.482 26.228C175.458 26.084 175.446 26 175.446 25.976V26.012C174.246 24.14 173.166 22.136 172.206 20V20.036C172.086 19.82 171.594 18.572 170.73 16.292V16.328C170.634 16.232 170.466 15.956 170.226 15.5C169.986 15.044 169.746 14.732 169.506 14.564V14.384C169.194 14.24 168.93 14.024 168.714 13.736C168.714 13.592 168.738 13.46 168.786 13.34C168.81 13.22 168.858 13.124 168.93 13.052C169.002 12.98 169.074 12.92 169.146 12.872C169.218 12.8 169.314 12.752 169.434 12.728C169.578 12.68 169.698 12.644 169.794 12.62C169.89 12.596 170.022 12.584 170.19 12.584C170.358 12.584 170.49 12.584 170.586 12.584C170.682 12.584 170.814 12.584 170.982 12.584C171.174 12.584 171.318 12.584 171.414 12.584C171.798 12.632 172.122 12.656 172.386 12.656C172.434 12.656 172.506 12.656 172.602 12.656C172.698 12.632 172.77 12.62 172.818 12.62Z" fill="black"/>
</svg>
