<svg width="28" height="28" viewBox="0 0 28 28" fill="none" xmlns="http://www.w3.org/2000/svg">
<path d="M14 4C12.0222 4 10.0888 4.58649 8.4443 5.6853C6.79981 6.78412 5.51809 8.34591 4.76121 10.1732C4.00433 12.0004 3.8063 14.0111 4.19215 15.9509C4.578 17.8907 5.53041 19.6725 6.92894 21.0711C8.32746 22.4696 10.1093 23.422 12.0491 23.8079C13.9889 24.1937 15.9996 23.9957 17.8268 23.2388C19.6541 22.4819 21.2159 21.2002 22.3147 19.5557C23.4135 17.9112 24 15.9778 24 14C24 12.6868 23.7413 11.3864 23.2388 10.1732C22.7362 8.95991 21.9997 7.85752 21.0711 6.92893C20.1425 6.00035 19.0401 5.26375 17.8268 4.7612C16.6136 4.25866 15.3132 4 14 4ZM14 22C12.4178 22 10.871 21.5308 9.55544 20.6518C8.23985 19.7727 7.21447 18.5233 6.60897 17.0615C6.00347 15.5997 5.84504 13.9911 6.15372 12.4393C6.4624 10.8874 7.22433 9.46197 8.34315 8.34315C9.46197 7.22433 10.8874 6.4624 12.4393 6.15372C13.9911 5.84504 15.5997 6.00346 17.0615 6.60896C18.5233 7.21447 19.7727 8.23985 20.6518 9.55544C21.5308 10.871 22 12.4178 22 14C22 16.1217 21.1571 18.1566 19.6569 19.6569C18.1566 21.1572 16.1217 22 14 22Z" fill="white"/>
<path d="M14 8C13.0717 8 12.1815 8.36875 11.5251 9.02512C10.8687 9.6815 10.5 10.5717 10.5 11.5C10.5 11.7652 10.6054 12.0196 10.7929 12.2071C10.9804 12.3946 11.2348 12.5 11.5 12.5C11.7652 12.5 12.0196 12.3946 12.2071 12.2071C12.3946 12.0196 12.5 11.7652 12.5 11.5C12.5 11.2033 12.588 10.9133 12.7528 10.6666C12.9176 10.42 13.1519 10.2277 13.426 10.1142C13.7001 10.0006 14.0017 9.97094 14.2926 10.0288C14.5836 10.0867 14.8509 10.2296 15.0607 10.4393C15.2704 10.6491 15.4133 10.9164 15.4712 11.2074C15.5291 11.4983 15.4994 11.7999 15.3858 12.074C15.2723 12.3481 15.08 12.5824 14.8334 12.7472C14.5867 12.912 14.2967 13 14 13C13.7348 13 13.4804 13.1054 13.2929 13.2929C13.1054 13.4804 13 13.7348 13 14V16C13 16.2652 13.1054 16.5196 13.2929 16.7071C13.4804 16.8946 13.7348 17 14 17C14.2652 17 14.5196 16.8946 14.7071 16.7071C14.8946 16.5196 15 16.2652 15 16V14.84C15.8081 14.604 16.5037 14.0839 16.9585 13.3754C17.4133 12.667 17.5967 11.8181 17.475 10.9851C17.3532 10.1521 16.9344 9.39115 16.2958 8.84259C15.6572 8.29402 14.8418 7.99477 14 8Z" fill="white"/>
<path d="M14 20C14.5523 20 15 19.5523 15 19C15 18.4477 14.5523 18 14 18C13.4477 18 13 18.4477 13 19C13 19.5523 13.4477 20 14 20Z" fill="white"/>
</svg>
